<svg xmlns="http://www.w3.org/2000/svg" width="960" height="500"><g transform="translate(30, 20)"><g><g transform="translate(0, 420)" fill="none" font-size="10" font-family="sans-serif" text-anchor="middle"><path class="domain" stroke="#000" d="M0.5000,5V0.5000H910.5000V5"></path><g class="tick" opacity="1" transform="translate(78.5,0)"><line stroke="#000" y2="5"></line><text fill="#000" y="10" dy="0.71em">1,641,180,550,000</text></g><g class="tick" opacity="1" transform="translate(218.5,0)"><line stroke="#000" y2="5"></line><text fill="#000" y="10" dy="0.71em">1,641,180,600,000</text></g><g class="tick" opacity="1" transform="translate(359.5,0)"><line stroke="#000" y2="5"></line><text fill="#000" y="10" dy="0.71em">1,641,180,650,000</text></g><g class="tick" opacity="1" transform="translate(500.5,0)"><line stroke="#000" y2="5"></line><text fill="#000" y="10" dy="0.71em">1,641,180,700,000</text></g><g class="tick" opacity="1" transform="translate(640.5,0)"><line stroke="#000" y2="5"></line><text fill="#000" y="10" dy="0.71em">1,641,180,750,000</text></g><g class="tick" opacity="1" transform="translate(781.5,0)"><line stroke="#000" y2="5"></line><text fill="#000" y="10" dy="0.71em">1,641,180,800,000</text></g></g><g fill="none" font-size="10" font-family="sans-serif" text-anchor="end"><path class="domain" stroke="#000" d="M-5,420.5000H0.5000V0.5000H-5"></path><g class="tick" opacity="1" transform="translate(0,420.5)"><line stroke="#000" x2="-5"></line><text fill="#000" x="-10" dy="0.32em">45</text></g><g class="tick" opacity="1" transform="translate(0,369.5)"><line stroke="#000" x2="-5"></line><text fill="#000" x="-10" dy="0.32em">50</text></g><g class="tick" opacity="1" transform="translate(0,318.5)"><line stroke="#000" x2="-5"></line><text fill="#000" x="-10" dy="0.32em">55</text></g><g class="tick" opacity="1" transform="translate(0,266.5)"><line stroke="#000" x2="-5"></line><text fill="#000" x="-10" dy="0.32em">60</text></g><g class="tick" opacity="1" transform="translate(0,215.5)"><line stroke="#000" x2="-5"></line><text fill="#000" x="-10" dy="0.32em">65</text></g><g class="tick" opacity="1" transform="translate(0,164.5)"><line stroke="#000" x2="-5"></line><text fill="#000" x="-10" dy="0.32em">70</text></g><g class="tick" opacity="1" transform="translate(0,113.5)"><line stroke="#000" x2="-5"></line><text fill="#000" x="-10" dy="0.32em">75</text></g><g class="tick" opacity="1" transform="translate(0,61.5)"><line stroke="#000" x2="-5"></line><text fill="#000" x="-10" dy="0.32em">80</text></g><g class="tick" opacity="1" transform="translate(0,10.5)"><line stroke="#000" x2="-5"></line><text fill="#000" x="-10" dy="0.32em">85</text></g></g><g fill="none" stroke-width="1.5"><path stroke="steelblue" d="M0,297L0.1667,293.6667C0.3333,290.3333,0.6667,283.6667,1.1667,276.8333C1.6667,270,2.3333,263,2.8333,256.1667C3.3333,249.3333,3.6667,242.6667,4.1667,251.1667C4.6667,259.6667,5.3333,283.3333,5.8333,290.1667C6.3333,297,6.6667,287,7.1667,278.5000C7.6667,270,8.3333,263,8.8333,254.3333C9.3333,245.6667,9.6667,235.3333,10,226.8333C10.3333,218.3333,10.6667,211.6667,11.1667,204.8333C11.6667,198,12.3333,191,12.8333,199.5000C13.3333,208,13.6667,232,14.1667,240.6667C14.6667,249.3333,15.3333,242.6667,15.8333,235.8333C16.3333,229,16.6667,222,17,215.1667C17.3333,208.3333,17.6667,201.6667,18.1667,194.8333C18.6667,188,19.3333,181,19.8333,172.3333C20.3333,163.6667,20.6667,153.3333,21.1667,146.5000C21.6667,139.6667,22.3333,136.3333,22.8333,131.3333C23.3333,126.3333,23.6667,119.6667,24.1667,131.6667C24.6667,143.6667,25.3333,174.3333,25.8333,186.1667C26.3333,198,26.6667,191,27,184.1667C27.3333,177.3333,27.6667,170.6667,28.1667,163.8333C28.6667,157,29.3333,150,29.8333,143.1667C30.3333,136.3333,30.6667,129.6667,31.1667,122.8333C31.6667,116,32.3333,109,32.8333,102.1667C33.3333,95.3333,33.6667,88.6667,34,81.8333C34.3333,75,34.6667,68,35.1667,95.3333C35.6667,122.6667,36.3333,184.3333,36.8333,210C37.3333,235.6667,37.6667,225.3333,38.1667,216.8333C38.6667,208.3333,39.3333,201.6667,39.8333,194.8333C40.3333,188,40.6667,181,41,174.1667C41.3333,167.3333,41.6667,160.6667,42.1667,153.8333C42.6667,147,43.3333,140,43.8333,133.1667C44.3333,126.3333,44.6667,119.6667,45.1667,112.8333C45.6667,106,46.3333,99,46.8333,92.1667C47.3333,85.3333,47.6667,78.6667,48,71.8333C48.3333,65,48.6667,58,49.1667,73.3333C49.6667,88.6667,50.3333,126.3333,50.8333,141.6667C51.3333,157,51.6667,150,52.1667,143.1667C52.6667,136.3333,53.3333,129.6667,53.8333,122.8333C54.3333,116,54.6667,109,55.1667,102.1667C55.6667,95.3333,56.3333,88.6667,56.8333,80.1667C57.3333,71.6667,57.6667,61.3333,58,52.8333C58.3333,44.3333,58.6667,37.6667,59.1667,30.8333C59.6667,24,60.3333,17,60.8333,80.1667C61.3333,143.3333,61.6667,276.6667,62.1667,339.8333C62.6667,403,63.3333,396,63.8333,389.1667C64.3333,382.3333,64.6667,375.6667,65,368.8333C65.3333,362,65.6667,355,66.1667,348.1667C66.6667,341.3333,67.3333,334.6667,67.8333,327.8333C68.3333,321,68.6667,314,69.1667,307.1667C69.6667,300.3333,70.3333,293.6667,70.8333,286.8333C71.3333,280,71.6667,273,72,266.1667C72.3333,259.3333,72.6667,252.6667,73.1667,245.8333C73.6667,239,74.3333,232,74.8333,225.1667C75.3333,218.3333,75.6667,211.6667,76.1667,225.3333C76.6667,239,77.3333,273,77.8333,286.6667C78.3333,300.3333,78.6667,293.6667,79,286.8333C79.3333,280,79.6667,273,80.1667,266.1667C80.6667,259.3333,81.3333,252.6667,81.8333,245.8333C82.3333,239,82.6667,232,83.1667,225.1667C83.6667,218.3333,84.3333,211.6667,84.8333,239C85.3333,266.3333,85.6667,327.6667,86.1667,360.1667C86.6667,392.6667,87.3333,396.3333,87.8333,396.3333C88.3333,396.3333,88.6667,392.6667,89,390.8333C89.3333,389,89.6667,389,90.1667,387.3333C90.6667,385.6667,91.3333,382.3333,91.8333,380.6667C92.3333,379,92.6667,379,93.1667,377.3333C93.6667,375.6667,94.3333,372.3333,94.8333,367.1667C95.3333,362,95.6667,355,96,348.1667C96.3333,341.3333,96.6667,334.6667,97.1667,333C97.6667,331.3333,98.3333,334.6667,98.8333,350C99.3333,365.3333,99.6667,392.6667,100.1667,401.1667C100.6667,409.6667,101.3333,399.3333,101.8333,392.5000C102.3333,385.6667,102.6667,382.3333,103,382.3333C103.3333,382.3333,103.6667,385.6667,104.1667,384C104.6667,382.3333,105.3333,375.6667,105.8333,374C106.3333,372.3333,106.6667,375.6667,107.1667,374C107.6667,372.3333,108.3333,365.6667,108.8333,372.5000C109.3333,379.3333,109.6667,399.6667,110,404.6667C110.3333,409.6667,110.6667,399.3333,111.1667,392.5000C111.6667,385.6667,112.3333,382.3333,112.8333,377.3333C113.3333,372.3333,113.6667,365.6667,114.1667,358.8333C114.6667,352,115.3333,345,115.8333,338.1667C116.3333,331.3333,116.6667,324.6667,117.1667,328.1667C117.6667,331.6667,118.3333,345.3333,118.8333,348.6667C119.3333,352,119.6667,345,120,338.1667C120.3333,331.3333,120.6667,324.6667,121.1667,317.8333C121.6667,311,122.3333,304,122.8333,305.6667C123.3333,307.3333,123.6667,317.6667,124.1667,319.3333C124.6667,321,125.3333,314,125.8333,307.1667C126.3333,300.3333,126.6667,293.6667,127,286.8333C127.3333,280,127.6667,273,128.1667,295.1667C128.6667,317.3333,129.3333,368.6667,129.8333,389.1667C130.3333,409.6667,130.6667,399.3333,131.1667,390.8333C131.6667,382.3333,132.3333,375.6667,132.8333,368.8333C133.3333,362,133.6667,355,134,348.1667C134.3333,341.3333,134.6667,334.6667,135.1667,327.8333C135.6667,321,136.3333,314,136.8333,307.1667C137.3333,300.3333,137.6667,293.6667,138.1667,286.8333C138.6667,280,139.3333,273,139.8333,266.1667C140.3333,259.3333,140.6667,252.6667,141,245.8333C141.3333,239,141.6667,232,142.1667,225.1667C142.6667,218.3333,143.3333,211.6667,143.8333,227.1667C144.3333,242.6667,144.6667,280.3333,145.1667,295.6667C145.6667,311,146.3333,304,146.8333,297.1667C147.3333,290.3333,147.6667,283.6667,148,276.8333C148.3333,270,148.6667,263,149.1667,256.1667C149.6667,249.3333,150.3333,242.6667,150.8333,234.1667C151.3333,225.6667,151.6667,215.3333,152.1667,206.6667C152.6667,198,153.3333,191,153.8333,208C154.3333,225,154.6667,266,155.1667,281.5000C155.6667,297,156.3333,287,156.8333,278.5000C157.3333,270,157.6667,263,158,256.1667C158.3333,249.3333,158.6667,242.6667,159.1667,235.8333C159.6667,229,160.3333,222,160.8333,215.1667C161.3333,208.3333,161.6667,201.6667,162.1667,194.8333C162.6667,188,163.3333,181,163.8333,172.3333C164.3333,163.6667,164.6667,153.3333,165,144.8333C165.3333,136.3333,165.6667,129.6667,166.1667,122.8333C166.6667,116,167.3333,109,167.8333,122.6667C168.3333,136.3333,168.6667,170.6667,169.1667,184.3333C169.6667,198,170.3333,191,170.8333,184.1667C171.3333,177.3333,171.6667,170.6667,172,163.8333C172.3333,157,172.6667,150,173.1667,143.1667C173.6667,136.3333,174.3333,129.6667,174.8333,121.1667C175.3333,112.6667,175.6667,102.3333,176.1667,93.8333C176.6667,85.3333,177.3333,78.6667,177.8333,89C178.3333,99.3333,178.6667,126.6667,179,179.5000C179.3333,232.3333,179.6667,310.6667,180.1667,346.5000C180.6667,382.3333,181.3333,375.6667,181.8333,367.1667C182.3333,358.6667,182.6667,348.3333,183.1667,339.8333C183.6667,331.3333,184.3333,324.6667,184.8333,317.8333C185.3333,311,185.6667,304,186.1667,297.1667C186.6667,290.3333,187.3333,283.6667,187.8333,275.1667C188.3333,266.6667,188.6667,256.3333,189,247.6667C189.3333,239,189.6667,232,190.1667,247.3333C190.6667,262.6667,191.3333,300.3333,191.8333,314C192.3333,327.6667,192.6667,317.3333,193.1667,308.8333C193.6667,300.3333,194.3333,293.6667,194.8333,286.8333C195.3333,280,195.6667,273,196,264.5000C196.3333,256,196.6667,246,197.1667,237.5000C197.6667,229,198.3333,222,198.8333,215.1667C199.3333,208.3333,199.6667,201.6667,200.1667,217C200.6667,232.3333,201.3333,269.6667,201.8333,285C202.3333,300.3333,202.6667,293.6667,203,286.8333C203.3333,280,203.6667,273,204.1667,266.1667C204.6667,259.3333,205.3333,252.6667,205.8333,245.8333C206.3333,239,206.6667,232,207.1667,225.1667C207.6667,218.3333,208.3333,211.6667,208.8333,206.6667C209.3333,201.6667,209.6667,198.3333,210,193.1667C210.3333,188,210.6667,181,211.1667,174.1667C211.6667,167.3333,212.3333,160.6667,212.8333,153.8333C213.3333,147,213.6667,140,214.1667,133.1667C214.6667,126.3333,215.3333,119.6667,215.8333,135C216.3333,150.3333,216.6667,187.6667,217.1667,203C217.6667,218.3333,218.3333,211.6667,218.8333,204.8333C219.3333,198,219.6667,191,220,184.1667C220.3333,177.3333,220.6667,170.6667,221.1667,163.8333C221.6667,157,222.3333,150,222.8333,143.1667C223.3333,136.3333,223.6667,129.6667,224.1667,172.5000C224.6667,215.3333,225.3333,307.6667,225.8333,355.5000C226.3333,403.3333,226.6667,406.6667,227,408.3333C227.3333,410,227.6667,410,228.1667,408.3333C228.6667,406.6667,229.3333,403.3333,229.8333,399.8333C230.3333,396.3333,230.6667,392.6667,231.1667,389.1667C231.6667,385.6667,232.3333,382.3333,232.8333,379C233.3333,375.6667,233.6667,372.3333,234,369C234.3333,365.6667,234.6667,362.3333,235.1667,357.1667C235.6667,352,236.3333,345,236.8333,343.1667C237.3333,341.3333,237.6667,344.6667,238.1667,343C238.6667,341.3333,239.3333,334.6667,239.8333,346.6667C240.3333,358.6667,240.6667,389.3333,241,399.5000C241.3333,409.6667,241.6667,399.3333,242.1667,390.8333C242.6667,382.3333,243.3333,375.6667,243.8333,374C244.3333,372.3333,244.6667,375.6667,245.1667,377.3333C245.6667,379,246.3333,379,246.8333,375.6667C247.3333,372.3333,247.6667,365.6667,248.1667,364C248.6667,362.3333,249.3333,365.6667,249.8333,375.8333C250.3333,386,250.6667,403,251,406.3333C251.3333,409.6667,251.6667,399.3333,252.1667,390.8333C252.6667,382.3333,253.3333,375.6667,253.8333,367.1667C254.3333,358.6667,254.6667,348.3333,255.1667,339.8333C255.6667,331.3333,256.3333,324.6667,256.8333,328.1667C257.3333,331.6667,257.6667,345.3333,258,348.6667C258.3333,352,258.6667,345,259.1667,338.1667C259.6667,331.3333,260.3333,324.6667,260.8333,326.3333C261.3333,328,261.6667,338,262.1667,339.6667C262.6667,341.3333,263.3333,334.6667,263.8333,327.8333C264.3333,321,264.6667,314,265,305.5000C265.3333,297,265.6667,287,266.1667,288.8333C266.6667,290.6667,267.3333,304.3333,267.8333,306C268.3333,307.6667,268.6667,297.3333,269.1667,288.6667C269.6667,280,270.3333,273,270.8333,293.5000C271.3333,314,271.6667,362,272,382.5000C272.3333,403,272.6667,396,273.1667,389.1667C273.6667,382.3333,274.3333,375.6667,274.8333,368.8333C275.3333,362,275.6667,355,276.1667,346.5000C276.6667,338,277.3333,328,277.8333,319.5000C278.3333,311,278.6667,304,279,297.1667C279.3333,290.3333,279.6667,283.6667,280.1667,276.8333C280.6667,270,281.3333,263,281.8333,254.3333C282.3333,245.6667,282.6667,235.3333,283.1667,249C283.6667,262.6667,284.3333,300.3333,284.8333,315.8333C285.3333,331.3333,285.6667,324.6667,286.1667,317.8333C286.6667,311,287.3333,304,287.8333,295.3333C288.3333,286.6667,288.6667,276.3333,289,267.8333C289.3333,259.3333,289.6667,252.6667,290.1667,245.8333C290.6667,239,291.3333,232,291.8333,225.1667C292.3333,218.3333,292.6667,211.6667,293.1667,244.1667C293.6667,276.6667,294.3333,348.3333,294.8333,379C295.3333,409.6667,295.6667,399.3333,296,390.8333C296.3333,382.3333,296.6667,375.6667,297.1667,367.1667C297.6667,358.6667,298.3333,348.3333,298.8333,339.8333C299.3333,331.3333,299.6667,324.6667,300.1667,317.8333C300.6667,311,301.3333,304,301.8333,295.3333C302.3333,286.6667,302.6667,276.3333,303,267.8333C303.3333,259.3333,303.6667,252.6667,304.1667,245.8333C304.6667,239,305.3333,232,305.8333,247.3333C306.3333,262.6667,306.6667,300.3333,307.1667,314C307.6667,327.6667,308.3333,317.3333,308.8333,308.8333C309.3333,300.3333,309.6667,293.6667,310,286.8333C310.3333,280,310.6667,273,311.1667,264.5000C311.6667,256,312.3333,246,312.8333,237.5000C313.3333,229,313.6667,222,314.1667,215.1667C314.6667,208.3333,315.3333,201.6667,315.8333,218.8333C316.3333,236,316.6667,277,317.1667,292.3333C317.6667,307.6667,318.3333,297.3333,318.8333,288.6667C319.3333,280,319.6667,273,320,266.1667C320.3333,259.3333,320.6667,252.6667,321.1667,244.1667C321.6667,235.6667,322.3333,225.3333,322.8333,216.8333C323.3333,208.3333,323.6667,201.6667,324.1667,194.8333C324.6667,188,325.3333,181,325.8333,174.1667C326.3333,167.3333,326.6667,160.6667,327,152.1667C327.3333,143.6667,327.6667,133.3333,328.1667,147C328.6667,160.6667,329.3333,198.3333,329.8333,213.6667C330.3333,229,330.6667,222,331.1667,213.3333C331.6667,204.6667,332.3333,194.3333,332.8333,185.8333C333.3333,177.3333,333.6667,170.6667,334,163.8333C334.3333,157,334.6667,150,335.1667,141.5000C335.6667,133,336.3333,123,336.8333,114.5000C337.3333,106,337.6667,99,338.1667,114.3333C338.6667,129.6667,339.3333,167.3333,339.8333,182.6667C340.3333,198,340.6667,191,341,182.5000C341.3333,174,341.6667,164,342.1667,155.5000C342.6667,147,343.3333,140,343.8333,133.1667C344.3333,126.3333,344.6667,119.6667,345.1667,111.1667C345.6667,102.6667,346.3333,92.3333,346.8333,83.6667C347.3333,75,347.6667,68,348,61.1667C348.3333,54.3333,348.6667,47.6667,349.1667,39.1667C349.6667,30.6667,350.3333,20.3333,350.8333,34C351.3333,47.6667,351.6667,85.3333,352.1667,99C352.6667,112.6667,353.3333,102.3333,353.8333,93.8333C354.3333,85.3333,354.6667,78.6667,355.1667,71.8333C355.6667,65,356.3333,58,356.8333,49.3333C357.3333,40.6667,357.6667,30.3333,358,21.8333C358.3333,13.3333,358.6667,6.6667,359.1667,17C359.6667,27.3333,360.3333,54.6667,360.8333,123C361.3333,191.3333,361.6667,300.6667,362.1667,350.1667C362.6667,399.6667,363.3333,389.3333,363.8333,380.8333C364.3333,372.3333,364.6667,365.6667,365,357.1667C365.3333,348.6667,365.6667,338.3333,366.1667,329.6667C366.6667,321,367.3333,314,367.8333,305.5000C368.3333,297,368.6667,287,369.1667,278.5000C369.6667,270,370.3333,263,370.8333,254.3333C371.3333,245.6667,371.6667,235.3333,372,249C372.3333,262.6667,372.6667,300.3333,373.1667,314C373.6667,327.6667,374.3333,317.3333,374.8333,308.8333C375.3333,300.3333,375.6667,293.6667,376.1667,285.1667C376.6667,276.6667,377.3333,266.3333,377.8333,257.8333C378.3333,249.3333,378.6667,242.6667,379,234.1667C379.3333,225.6667,379.6667,215.3333,380.1667,206.6667C380.6667,198,381.3333,191,381.8333,225.1667C382.3333,259.3333,382.6667,334.6667,383.1667,367.1667C383.6667,399.6667,384.3333,389.3333,384.8333,380.8333C385.3333,372.3333,385.6667,365.6667,386.1667,357.1667C386.6667,348.6667,387.3333,338.3333,387.8333,329.6667C388.3333,321,388.6667,314,389,305.5000C389.3333,297,389.6667,287,390.1667,278.5000C390.6667,270,391.3333,263,391.8333,254.3333C392.3333,245.6667,392.6667,235.3333,393.1667,249C393.6667,262.6667,394.3333,300.3333,394.8333,314C395.3333,327.6667,395.6667,317.3333,396,308.8333C396.3333,300.3333,396.6667,293.6667,397.1667,285.1667C397.6667,276.6667,398.3333,266.3333,398.8333,257.8333C399.3333,249.3333,399.6667,242.6667,400.1667,235.8333C400.6667,229,401.3333,222,401.8333,215.1667C402.3333,208.3333,402.6667,201.6667,403,217C403.3333,232.3333,403.6667,269.6667,404.1667,285C404.6667,300.3333,405.3333,293.6667,405.8333,286.8333C406.3333,280,406.6667,273,407.1667,266.1667C407.6667,259.3333,408.3333,252.6667,408.8333,244.1667C409.3333,235.6667,409.6667,225.3333,410,216.8333C410.3333,208.3333,410.6667,201.6667,411.1667,194.8333C411.6667,188,412.3333,181,412.8333,174.1667C413.3333,167.3333,413.6667,160.6667,414.1667,153.8333C414.6667,147,415.3333,140,415.8333,133.1667C416.3333,126.3333,416.6667,119.6667,417.1667,133.3333C417.6667,147,418.3333,181,418.8333,194.6667C419.3333,208.3333,419.6667,201.6667,420,194.8333C420.3333,188,420.6667,181,421.1667,174.1667C421.6667,167.3333,422.3333,160.6667,422.8333,153.8333C423.3333,147,423.6667,140,424.1667,133.1667C424.6667,126.3333,425.3333,119.6667,425.8333,112.8333C426.3333,106,426.6667,99,427,145C427.3333,191,427.6667,290,428.1667,341.3333C428.6667,392.6667,429.3333,396.3333,429.8333,398.1667C430.3333,400,430.6667,400,431.1667,400C431.6667,400,432.3333,400,432.8333,398.1667C433.3333,396.3333,433.6667,392.6667,434,389.1667C434.3333,385.6667,434.6667,382.3333,435.1667,379C435.6667,375.6667,436.3333,372.3333,436.8333,369C437.3333,365.6667,437.6667,362.3333,438.1667,355.5000C438.6667,348.6667,439.3333,338.3333,439.8333,334.8333C440.3333,331.3333,440.6667,334.6667,441,339.8333C441.3333,345,441.6667,352,442.1667,352C442.6667,352,443.3333,345,443.8333,336.3333C444.3333,327.6667,444.6667,317.3333,445.1667,314C445.6667,310.6667,446.3333,314.3333,446.8333,316.1667C447.3333,318,447.6667,318,448,314.5000C448.3333,311,448.6667,304,449.1667,297.1667C449.6667,290.3333,450.3333,283.6667,450.8333,275.1667C451.3333,266.6667,451.6667,256.3333,452.1667,258C452.6667,259.6667,453.3333,273.3333,453.8333,276.6667C454.3333,280,454.6667,273,455.1667,264.5000C455.6667,256,456.3333,246,456.8333,237.5000C457.3333,229,457.6667,222,458,251C458.3333,280,458.6667,345,459.1667,374C459.6667,403,460.3333,396,460.8333,387.5000C461.3333,379,461.6667,369,462.1667,360.5000C462.6667,352,463.3333,345,463.8333,338.1667C464.3333,331.3333,464.6667,324.6667,465,328.1667C465.3333,331.6667,465.6667,345.3333,466.1667,347C466.6667,348.6667,467.3333,338.3333,467.8333,329.6667C468.3333,321,468.6667,314,469.1667,315.6667C469.6667,317.3333,470.3333,327.6667,470.8333,329.5000C471.3333,331.3333,471.6667,324.6667,472,316.1667C472.3333,307.6667,472.6667,297.3333,473.1667,288.6667C473.6667,280,474.3333,273,474.8333,293.5000C475.3333,314,475.6667,362,476.1667,382.5000C476.6667,403,477.3333,396,477.8333,387.5000C478.3333,379,478.6667,369,479,360.5000C479.3333,352,479.6667,345,480.1667,336.3333C480.6667,327.6667,481.3333,317.3333,481.8333,308.8333C482.3333,300.3333,482.6667,293.6667,483.1667,286.8333C483.6667,280,484.3333,273,484.8333,264.5000C485.3333,256,485.6667,246,486.1667,237.5000C486.6667,229,487.3333,222,487.8333,237.3333C488.3333,252.6667,488.6667,290.3333,489,304C489.3333,317.6667,489.6667,307.3333,490.1667,298.8333C490.6667,290.3333,491.3333,283.6667,491.8333,275.1667C492.3333,266.6667,492.6667,256.3333,493.1667,247.6667C493.6667,239,494.3333,232,494.8333,223.5000C495.3333,215,495.6667,205,496,235.8333C496.3333,266.6667,496.6667,338.3333,497.1667,370.6667C497.6667,403,498.3333,396,498.8333,387.5000C499.3333,379,499.6667,369,500.1667,360.5000C500.6667,352,501.3333,345,501.8333,336.3333C502.3333,327.6667,502.6667,317.3333,503,307.1667C503.3333,297,503.6667,287,504.1667,278.5000C504.6667,270,505.3333,263,505.8333,254.3333C506.3333,245.6667,506.6667,235.3333,507.1667,249C507.6667,262.6667,508.3333,300.3333,508.8333,314C509.3333,327.6667,509.6667,317.3333,510,308.8333C510.3333,300.3333,510.6667,293.6667,511.1667,285.1667C511.6667,276.6667,512.3333,266.3333,512.8333,257.8333C513.3333,249.3333,513.6667,242.6667,514.1667,234.1667C514.6667,225.6667,515.3333,215.3333,515.8333,206.6667C516.3333,198,516.6667,191,517,225.1667C517.3333,259.3333,517.6667,334.6667,518.1667,367.1667C518.6667,399.6667,519.3333,389.3333,519.8333,380.8333C520.3333,372.3333,520.6667,365.6667,521.1667,357.1667C521.6667,348.6667,522.3333,338.3333,522.8333,329.6667C523.3333,321,523.6667,314,524.1667,305.5000C524.6667,297,525.3333,287,525.8333,276.8333C526.3333,266.6667,526.6667,256.3333,527,247.6667C527.3333,239,527.6667,232,528.1667,247.3333C528.6667,262.6667,529.3333,300.3333,529.8333,314C530.3333,327.6667,530.6667,317.3333,531.1667,308.8333C531.6667,300.3333,532.3333,293.6667,532.8333,285.1667C533.3333,276.6667,533.6667,266.3333,534,256C534.3333,245.6667,534.6667,235.3333,535.1667,226.8333C535.6667,218.3333,536.3333,211.6667,536.8333,242.5000C537.3333,273.3333,537.6667,341.6667,538.1667,370.6667C538.6667,399.6667,539.3333,389.3333,539.8333,380.8333C540.3333,372.3333,540.6667,365.6667,541,357.1667C541.3333,348.6667,541.6667,338.3333,542.1667,329.6667C542.6667,321,543.3333,314,543.8333,305.5000C544.3333,297,544.6667,287,545.1667,276.8333C545.6667,266.6667,546.3333,256.3333,546.8333,247.6667C547.3333,239,547.6667,232,548,245.6667C548.3333,259.3333,548.6667,293.6667,549.1667,307.3333C549.6667,321,550.3333,314,550.8333,305.5000C551.3333,297,551.6667,287,552.1667,276.8333C552.6667,266.6667,553.3333,256.3333,553.8333,247.6667C554.3333,239,554.6667,232,555.1667,223.5000C555.6667,215,556.3333,205,556.8333,235.8333C557.3333,266.6667,557.6667,338.3333,558,369C558.3333,399.6667,558.6667,389.3333,559.1667,380.8333C559.6667,372.3333,560.3333,365.6667,560.8333,357.1667C561.3333,348.6667,561.6667,338.3333,562.1667,328C562.6667,317.6667,563.3333,307.3333,563.8333,298.8333C564.3333,290.3333,564.6667,283.6667,565,275.1667C565.3333,266.6667,565.6667,256.3333,566.1667,246C566.6667,235.6667,567.3333,225.3333,567.8333,239C568.3333,252.6667,568.6667,290.3333,569.1667,304C569.6667,317.6667,570.3333,307.3333,570.8333,298.8333C571.3333,290.3333,571.6667,283.6667,572,275.1667C572.3333,266.6667,572.6667,256.3333,573.1667,246C573.6667,235.6667,574.3333,225.3333,574.8333,216.8333C575.3333,208.3333,575.6667,201.6667,576.1667,234.1667C576.6667,266.6667,577.3333,338.3333,577.8333,369C578.3333,399.6667,578.6667,389.3333,579,380.8333C579.3333,372.3333,579.6667,365.6667,580.1667,357.1667C580.6667,348.6667,581.3333,338.3333,581.8333,328C582.3333,317.6667,582.6667,307.3333,583.1667,297C583.6667,286.6667,584.3333,276.3333,584.8333,267.8333C585.3333,259.3333,585.6667,252.6667,586.1667,244.1667C586.6667,235.6667,587.3333,225.3333,587.8333,239C588.3333,252.6667,588.6667,290.3333,589,304C589.3333,317.6667,589.6667,307.3333,590.1667,297C590.6667,286.6667,591.3333,276.3333,591.8333,267.8333C592.3333,259.3333,592.6667,252.6667,593.1667,244.1667C593.6667,235.6667,594.3333,225.3333,594.8333,215C595.3333,204.6667,595.6667,194.3333,596,226.8333C596.3333,259.3333,596.6667,334.6667,597.1667,367.1667C597.6667,399.6667,598.3333,389.3333,598.8333,379C599.3333,368.6667,599.6667,358.3333,600.1667,349.8333C600.6667,341.3333,601.3333,334.6667,601.8333,326.1667C602.3333,317.6667,602.6667,307.3333,603,297C603.3333,286.6667,603.6667,276.3333,604.1667,266.1667C604.6667,256,605.3333,246,605.8333,237.5000C606.3333,229,606.6667,222,607.1667,235.6667C607.6667,249.3333,608.3333,283.6667,608.8333,297.3333C609.3333,311,609.6667,304,610,295.3333C610.3333,286.6667,610.6667,276.3333,611.1667,266.1667C611.6667,256,612.3333,246,612.8333,235.8333C613.3333,225.6667,613.6667,215.3333,614.1667,244.3333C614.6667,273.3333,615.3333,341.6667,615.8333,370.6667C616.3333,399.6667,616.6667,389.3333,617,379C617.3333,368.6667,617.6667,358.3333,618.1667,348.1667C618.6667,338,619.3333,328,619.8333,319.5000C620.3333,311,620.6667,304,621.1667,295.3333C621.6667,286.6667,622.3333,276.3333,622.8333,266.1667C623.3333,256,623.6667,246,624.1667,258C624.6667,270,625.3333,304,625.8333,317.6667C626.3333,331.3333,626.6667,324.6667,627,316.1667C627.3333,307.6667,627.6667,297.3333,628.1667,287C628.6667,276.6667,629.3333,266.3333,629.8333,256C630.3333,245.6667,630.6667,235.3333,631.1667,225.1667C631.6667,215,632.3333,205,632.8333,235.8333C633.3333,266.6667,633.6667,338.3333,634,369C634.3333,399.6667,634.6667,389.3333,635.1667,379C635.6667,368.6667,636.3333,358.3333,636.8333,348.1667C637.3333,338,637.6667,328,638.1667,317.8333C638.6667,307.6667,639.3333,297.3333,639.8333,288.6667C640.3333,280,640.6667,273,641,264.5000C641.3333,256,641.6667,246,642.1667,258C642.6667,270,643.3333,304,643.8333,315.8333C644.3333,327.6667,644.6667,317.3333,645.1667,308.8333C645.6667,300.3333,646.3333,293.6667,646.8333,285.1667C647.3333,276.6667,647.6667,266.3333,648,256C648.3333,245.6667,648.6667,235.3333,649.1667,225.1667C649.6667,215,650.3333,205,650.8333,235.8333C651.3333,266.6667,651.6667,338.3333,652.1667,369C652.6667,399.6667,653.3333,389.3333,653.8333,379C654.3333,368.6667,654.6667,358.3333,655,348.1667C655.3333,338,655.6667,328,656.1667,317.8333C656.6667,307.6667,657.3333,297.3333,657.8333,287C658.3333,276.6667,658.6667,266.3333,659.1667,256C659.6667,245.6667,660.3333,235.3333,660.8333,249C661.3333,262.6667,661.6667,300.3333,662.1667,314C662.6667,327.6667,663.3333,317.3333,663.8333,307.1667C664.3333,297,664.6667,287,665,276.8333C665.3333,266.6667,665.6667,256.3333,666.1667,246C666.6667,235.6667,667.3333,225.3333,667.8333,215C668.3333,204.6667,668.6667,194.3333,669.1667,226.8333C669.6667,259.3333,670.3333,334.6667,670.8333,367.1667C671.3333,399.6667,671.6667,389.3333,672,379C672.3333,368.6667,672.6667,358.3333,673.1667,348.1667C673.6667,338,674.3333,328,674.8333,317.8333C675.3333,307.6667,675.6667,297.3333,676.1667,287C676.6667,276.6667,677.3333,266.3333,677.8333,256C678.3333,245.6667,678.6667,235.3333,679,247.3333C679.3333,259.3333,679.6667,293.6667,680.1667,305.6667C680.6667,317.6667,681.3333,307.3333,681.8333,297C682.3333,286.6667,682.6667,276.3333,683.1667,266.1667C683.6667,256,684.3333,246,684.8333,235.8333C685.3333,225.6667,685.6667,215.3333,686,244.3333C686.3333,273.3333,686.6667,341.6667,687.1667,370.6667C687.6667,399.6667,688.3333,389.3333,688.8333,379C689.3333,368.6667,689.6667,358.3333,690.1667,348.1667C690.6667,338,691.3333,328,691.8333,317.8333C692.3333,307.6667,692.6667,297.3333,693.1667,287C693.6667,276.6667,694.3333,266.3333,694.8333,256C695.3333,245.6667,695.6667,235.3333,696,247.3333C696.3333,259.3333,696.6667,293.6667,697.1667,305.6667C697.6667,317.6667,698.3333,307.3333,698.8333,297C699.3333,286.6667,699.6667,276.3333,700.1667,266.1667C700.6667,256,701.3333,246,701.8333,235.8333C702.3333,225.6667,702.6667,215.3333,703,244.3333C703.3333,273.3333,703.6667,341.6667,704.1667,370.6667C704.6667,399.6667,705.3333,389.3333,705.8333,379C706.3333,368.6667,706.6667,358.3333,707.1667,348.1667C707.6667,338,708.3333,328,708.8333,317.8333C709.3333,307.6667,709.6667,297.3333,710,287C710.3333,276.6667,710.6667,266.3333,711.1667,254.3333C711.6667,242.3333,712.3333,228.6667,712.8333,240.6667C713.3333,252.6667,713.6667,290.3333,714.1667,304C714.6667,317.6667,715.3333,307.3333,715.8333,297C716.3333,286.6667,716.6667,276.3333,717,266.1667C717.3333,256,717.6667,246,718.1667,235.8333C718.6667,225.6667,719.3333,215.3333,719.8333,244.3333C720.3333,273.3333,720.6667,341.6667,721.1667,370.6667C721.6667,399.6667,722.3333,389.3333,722.8333,379C723.3333,368.6667,723.6667,358.3333,724.1667,348.1667C724.6667,338,725.3333,328,725.8333,316.1667C726.3333,304.3333,726.6667,290.6667,727,278.6667C727.3333,266.6667,727.6667,256.3333,728.1667,246C728.6667,235.6667,729.3333,225.3333,729.8333,237.3333C730.3333,249.3333,730.6667,283.6667,731.1667,295.6667C731.6667,307.6667,732.3333,297.3333,732.8333,287C733.3333,276.6667,733.6667,266.3333,734,256C734.3333,245.6667,734.6667,235.3333,735.1667,225.1667C735.6667,215,736.3333,205,736.8333,235.8333C737.3333,266.6667,737.6667,338.3333,738.1667,369C738.6667,399.6667,739.3333,389.3333,739.8333,377.3333C740.3333,365.3333,740.6667,351.6667,741,339.6667C741.3333,327.6667,741.6667,317.3333,742.1667,307.1667C742.6667,297,743.3333,287,743.8333,276.8333C744.3333,266.6667,744.6667,256.3333,745.1667,246C745.6667,235.6667,746.3333,225.3333,746.8333,237.3333C747.3333,249.3333,747.6667,283.6667,748,295.6667C748.3333,307.6667,748.6667,297.3333,749.1667,287C749.6667,276.6667,750.3333,266.3333,750.8333,256C751.3333,245.6667,751.6667,235.3333,752.1667,225.1667C752.6667,215,753.3333,205,753.8333,235.8333C754.3333,266.6667,754.6667,338.3333,755,369C755.3333,399.6667,755.6667,389.3333,756.1667,377.3333C756.6667,365.3333,757.3333,351.6667,757.8333,339.6667C758.3333,327.6667,758.6667,317.3333,759.1667,307.1667C759.6667,297,760.3333,287,760.8333,276.8333C761.3333,266.6667,761.6667,256.3333,762.1667,268.1667C762.6667,280,763.3333,314,763.8333,326C764.3333,338,764.6667,328,765,317.8333C765.3333,307.6667,765.6667,297.3333,766.1667,285.3333C766.6667,273.3333,767.3333,259.6667,767.8333,247.6667C768.3333,235.6667,768.6667,225.3333,769.1667,235.5000C769.6667,245.6667,770.3333,276.3333,770.8333,308.8333C771.3333,341.3333,771.6667,375.6667,772,386C772.3333,396.3333,772.6667,382.6667,773.1667,370.6667C773.6667,358.6667,774.3333,348.3333,774.8333,338C775.3333,327.6667,775.6667,317.3333,776.1667,307.1667C776.6667,297,777.3333,287,777.8333,275.1667C778.3333,263.3333,778.6667,249.6667,779,259.8333C779.3333,270,779.6667,304,780.1667,315.8333C780.6667,327.6667,781.3333,317.3333,781.8333,307.1667C782.3333,297,782.6667,287,783.1667,276.8333C783.6667,266.6667,784.3333,256.3333,784.8333,244.3333C785.3333,232.3333,785.6667,218.6667,786,227.1667C786.3333,235.6667,786.6667,266.3333,787.1667,300.5000C787.6667,334.6667,788.3333,372.3333,788.8333,384.3333C789.3333,396.3333,789.6667,382.6667,790.1667,370.6667C790.6667,358.6667,791.3333,348.3333,791.8333,338C792.3333,327.6667,792.6667,317.3333,793.1667,305.3333C793.6667,293.3333,794.3333,279.6667,794.8333,267.8333C795.3333,256,795.6667,246,796,258C796.3333,270,796.6667,304,797.1667,314.1667C797.6667,324.3333,798.3333,310.6667,798.8333,298.6667C799.3333,286.6667,799.6667,276.3333,800.1667,266.1667C800.6667,256,801.3333,246,801.8333,235.8333C802.3333,225.6667,802.6667,215.3333,803,223.8333C803.3333,232.3333,803.6667,259.6667,804.1667,293.8333C804.6667,328,805.3333,369,805.8333,382.6667C806.3333,396.3333,806.6667,382.6667,807.1667,370.6667C807.6667,358.6667,808.3333,348.3333,808.8333,336.3333C809.3333,324.3333,809.6667,310.6667,810,298.6667C810.3333,286.6667,810.6667,276.3333,811.1667,266.1667C811.6667,256,812.3333,246,812.8333,258C813.3333,270,813.6667,304,814.1667,314.1667C814.6667,324.3333,815.3333,310.6667,815.8333,298.6667C816.3333,286.6667,816.6667,276.3333,817,266.1667C817.3333,256,817.6667,246,818.1667,234.1667C818.6667,222.3333,819.3333,208.6667,819.8333,217.1667C820.3333,225.6667,820.6667,256.3333,821.1667,292.1667C821.6667,328,822.3333,369,822.8333,382.6667C823.3333,396.3333,823.6667,382.6667,824.1667,370.6667C824.6667,358.6667,825.3333,348.3333,825.8333,336.3333C826.3333,324.3333,826.6667,310.6667,827,298.6667C827.3333,286.6667,827.6667,276.3333,828.1667,266.1667C828.6667,256,829.3333,246,829.8333,258C830.3333,270,830.6667,304,831.1667,314.1667C831.6667,324.3333,832.3333,310.6667,832.8333,298.6667C833.3333,286.6667,833.6667,276.3333,834,266.1667C834.3333,256,834.6667,246,835.1667,234.1667C835.6667,222.3333,836.3333,208.6667,836.8333,215.5000C837.3333,222.3333,837.6667,249.6667,838.1667,285.5000C838.6667,321.3333,839.3333,365.6667,839.8333,381C840.3333,396.3333,840.6667,382.6667,841,370.6667C841.3333,358.6667,841.6667,348.3333,842.1667,336.3333C842.6667,324.3333,843.3333,310.6667,843.8333,298.6667C844.3333,286.6667,844.6667,276.3333,845.1667,264.3333C845.6667,252.3333,846.3333,238.6667,846.8333,249C847.3333,259.3333,847.6667,293.6667,848,305.6667C848.3333,317.6667,848.6667,307.3333,849.1667,295.3333C849.6667,283.3333,850.3333,269.6667,850.8333,256C851.3333,242.3333,851.6667,228.6667,852.1667,235.5000C852.6667,242.3333,853.3333,269.6667,853.8333,278.1667C854.3333,286.6667,854.6667,276.3333,855,295.1667C855.3333,314,855.6667,362,856.1667,379.1667C856.6667,396.3333,857.3333,382.6667,857.8333,370.6667C858.3333,358.6667,858.6667,348.3333,859.1667,336.3333C859.6667,324.3333,860.3333,310.6667,860.8333,297C861.3333,283.3333,861.6667,269.6667,862.1667,257.6667C862.6667,245.6667,863.3333,235.3333,863.8333,247.3333C864.3333,259.3333,864.6667,293.6667,865,305.6667C865.3333,317.6667,865.6667,307.3333,866.1667,295.3333C866.6667,283.3333,867.3333,269.6667,867.8333,257.6667C868.3333,245.6667,868.6667,235.3333,869.1667,243.8333C869.6667,252.3333,870.3333,279.6667,870.8333,310.5000C871.3333,341.3333,871.6667,375.6667,872,386C872.3333,396.3333,872.6667,382.6667,873.1667,369C873.6667,355.3333,874.3333,341.6667,874.8333,329.6667C875.3333,317.6667,875.6667,307.3333,876.1667,295.3333C876.6667,283.3333,877.3333,269.6667,877.8333,257.6667C878.3333,245.6667,878.6667,235.3333,879,247.3333C879.3333,259.3333,879.6667,293.6667,880.1667,304C880.6667,314.3333,881.3333,300.6667,881.8333,288.6667C882.3333,276.6667,882.6667,266.3333,883.1667,254.3333C883.6667,242.3333,884.3333,228.6667,884.8333,235.5000C885.3333,242.3333,885.6667,269.6667,886,278.1667C886.3333,286.6667,886.6667,276.3333,887.1667,295.1667C887.6667,314,888.3333,362,888.8333,379.1667C889.3333,396.3333,889.6667,382.6667,890.1667,370.6667C890.6667,358.6667,891.3333,348.3333,891.8333,338C892.3333,327.6667,892.6667,317.3333,893.1667,307.1667C893.6667,297,894.3333,287,894.8333,275.1667C895.3333,263.3333,895.6667,249.6667,896,237.6667C896.3333,225.6667,896.6667,215.3333,897.1667,229C897.6667,242.6667,898.3333,280.3333,898.8333,294C899.3333,307.6667,899.6667,297.3333,900.1667,287C900.6667,276.6667,901.3333,266.3333,901.8333,256C902.3333,245.6667,902.6667,235.3333,903,223.3333C903.3333,211.3333,903.6667,197.6667,904.1667,228.5000C904.6667,259.3333,905.3333,334.6667,905.8333,365.5000C906.3333,396.3333,906.6667,382.6667,907.1667,370.6667C907.6667,358.6667,908.3333,348.3333,908.8333,338C909.3333,327.6667,909.6667,317.3333,909.8333,312.1667L910,307"></path></g></g></g></svg>